<svg xmlns="http://www.w3.org/2000/svg" viewBox="0 0 32 32" width="39" height="39" style="border-color: rgba(0,0,0,0);border-width: bpx;border-style: undefined" filter="none">
    <path d="M26.464 6.72c-1.76-1.792-3.52-3.584-5.344-5.28-0.414-0.423-0.888-0.784-1.409-1.072l-0.031-0.016c-0.408-0.219-0.893-0.349-1.407-0.352h-9.537c-2.592 0-4.544 1.664-4.992 4.224-0.032 0.064-0.064 0.096-0.064 0.16v23.232c0.128 0.16 0.064 0.352 0.128 0.544 0.48 1.984 2.016 3.456 4.064 3.776 0.064 0 0.128 0.032 0.192 0.064h15.84c0.512-0.16 1.024-0.224 1.504-0.448 1.568-0.768 2.528-2.016 2.816-3.744 0.032-0.064 0-0.16 0.096-0.192v-17.984c-0.256-1.216-1.056-2.080-1.856-2.912zM25.856 11.552c-0.032 5.088-0.032 10.176-0.032 15.296 0 1.088-0.384 1.92-1.376 2.432-0.416 0.224-0.832 0.256-1.312 0.256h-14.336c-1.632 0-2.656-1.024-2.656-2.688v-21.76c0-1.056 0.448-1.888 1.408-2.368 0.384-0.224 0.8-0.256 1.216-0.256h8.544c0.48 0 0.8 0.192 0.96 0.672 0.16 0.352 0.16 0.736 0.16 1.152 0.032 1.344 0.032 2.72 0.032 4.096 0 0.992 0.448 1.44 1.44 1.44l4.352 0.032c1.536 0.128 1.6 0.672 1.6 1.696zM22.912 14.848h-13.856c-0.352 0-0.48 0.032-0.448 0.128 0 0.32 0.032 0.608 0 0.928-0.032 0.16 0.128 0.16 0.544 0.16h13.76c0.352 0 0.448 0 0.448-0.128-0.015-0.144-0.024-0.311-0.024-0.48s0.009-0.336 0.026-0.501l-0.002 0.021c0-0.096-0.128-0.128-0.448-0.128zM8.896 13.408h7.552c0.192 0 0.256-0.032 0.256-0.256v-1.632c0-0.224-0.064-0.256-0.256-0.256h-7.616c-0.192 0-0.256 0.032-0.224 0.256 0 0.512 0 1.056-0.032 1.568 0 0.288 0.096 0.32 0.32 0.32zM22.912 16.96h-13.856c-0.352 0-0.48 0.032-0.448 0.16 0 0.288 0.032 0.608 0 0.896-0.032 0.16 0.128 0.192 0.544 0.192h13.76c0.352 0 0.448-0.032 0.448-0.16-0.015-0.139-0.024-0.301-0.024-0.464s0.009-0.325 0.026-0.484l-0.002 0.020c0-0.128-0.128-0.16-0.448-0.16zM22.912 19.168h-13.856c-0.352 0-0.48 0.032-0.448 0.16 0 0.288 0.032 0.608 0 0.896-0.032 0.16 0.128 0.192 0.544 0.192 2.272-0.032 4.544 0 6.816 0 2.304 0 4.64-0.032 6.944 0 0.352 0 0.448-0.032 0.448-0.16-0.015-0.139-0.024-0.301-0.024-0.464s0.009-0.325 0.026-0.484l-0.002 0.020c0-0.128-0.128-0.16-0.448-0.16zM18.816 22.336h-8c-0.224 0-0.288 0.032-0.288 0.128 0.032 0.32 0.032 0.608 0 0.928 0 0.16 0.096 0.16 0.352 0.16h7.936c0.192 0 0.256 0 0.256-0.128v-0.96c0-0.096-0.064-0.128-0.256-0.128zM9.76 22.336h-1.12c-0.032 0-0.032 0.032-0.032 0.128v0.928c0 0.16 0 0.16 0.032 0.16h1.12s0.032 0 0.032-0.128v-0.96c0-0.096-0.032-0.128-0.032-0.128zM18.816 24.672h-8c-0.224 0-0.288 0.032-0.288 0.16 0.015 0.134 0.024 0.29 0.024 0.448s-0.009 0.314-0.026 0.467l0.002-0.019c0 0.16 0.096 0.192 0.352 0.192 1.312-0.032 2.592-0.032 3.904-0.032 1.344 0 2.688 0 4.032 0.032 0.192 0 0.256-0.032 0.256-0.16v-0.96c0-0.096-0.064-0.128-0.256-0.128zM9.76 24.672h-1.12c-0.032 0-0.032 0.032-0.032 0.16v0.896c0 0.16 0 0.192 0.032 0.192 0.192-0.032 0.352-0.032 0.544-0.032s0.384 0 0.576 0.032c0 0 0.032-0.032 0.032-0.16v-0.96c0-0.096-0.032-0.128-0.032-0.128z"></path>
  </svg>