<svg xmlns="http://www.w3.org/2000/svg" viewBox="0 0 32 32" width="39" height="39" style="border-color: rgba(0,0,0,0);border-width: bpx;border-style: undefined" filter="none">
    <path d="M17.792 19.808c-1.44-0.576-2.816-1.216-4.224-1.888-0.256-0.096-0.352-0.256-0.384-0.544-0-0.385-0.035-0.761-0.102-1.126l0.006 0.038c-0.032-0.224 0-0.416 0.192-0.576 0.704-0.704 1.248-1.504 1.408-2.528 0.032-0.128 0.096-0.192 0.256-0.192 0.32 0 0.512-0.192 0.576-0.512 0.096-0.512 0.16-1.056 0.256-1.6 0.064-0.32-0.064-0.544-0.384-0.64-0.224-0.064-0.192-0.16-0.16-0.32 0.096-0.704 0.192-1.44 0-2.144-0.512-1.792-1.696-2.944-3.424-3.52-0.64-0.224-1.28-0.16-1.888 0.16-0.32 0.192-0.672 0.128-1.056 0.16-1.44 0.032-2.72 1.344-3.136 2.88-0.224 0.832-0.288 1.664-0.128 2.528 0.032 0.128 0 0.192-0.128 0.256-0.288 0.128-0.416 0.384-0.352 0.704 0.096 0.512 0.16 1.024 0.256 1.536 0.064 0.288 0.256 0.48 0.544 0.512 0.16 0 0.224 0.064 0.288 0.224 0.264 1.036 0.79 1.925 1.503 2.623l0.001 0.001c0.064 0.096 0.128 0.192 0.096 0.32-0.064 0.448-0.096 0.896-0.128 1.344-0.032 0.192-0.096 0.32-0.288 0.416-1.28 0.576-2.528 1.184-3.808 1.696-0.896 0.32-1.728 0.736-2.464 1.344-0.736 0.64-1.152 1.44-1.12 2.4s0 1.888 0 2.848c0 0.672 0.32 1.12 0.896 1.44 0.352 0.192 0.704 0.224 1.088 0.224h14.624c0.96 0 1.888 0.064 2.816-0.064 0.864-0.096 1.44-0.768 1.472-1.6v-2.912c0-0.928-0.384-1.696-1.088-2.304-0.608-0.512-1.312-0.896-2.016-1.184zM32 23.392c-0.032-0.704-0.352-1.216-0.928-1.568-0.448-0.256-0.96-0.416-1.44-0.544-1.184-0.288-2.4-0.576-3.584-0.928-0.384-0.128-0.576-0.384-0.576-0.768 0-0.128 0-0.256-0.032-0.384-0.064-0.224 0.032-0.256 0.224-0.288 1.248-0.064 2.4-0.384 3.52-0.928 0.48-0.224 0.512-0.224 0.16-0.64-0.832-0.992-1.344-2.080-1.44-3.392-0.032-0.736 0-1.504-0.032-2.272 0-0.672-0.128-1.312-0.448-1.92-0.384-0.8-1.024-1.248-1.888-1.312-0.288 0-0.512 0-0.64-0.32-0.096-0.224-0.352-0.352-0.608-0.416-0.48-0.16-0.96-0.128-1.472-0.064-1.536 0.128-2.688 0.832-3.328 2.304-0.352 0.768-0.48 1.632-0.544 2.464-0.064 0.768-0.032 1.568-0.16 2.304-0.128 0.8-0.256 1.6-0.8 2.24-0.256 0.32-0.576 0.544-0.896 0.8 0.192 0.16 0.352 0.256 0.544 0.352 1.12 0.576 2.304 0.8 3.52 0.832 0.512 0.032 0.512 0.032 0.448 0.512v0.256c-0.032 0.288-0.16 0.48-0.448 0.544-0.256 0.096-0.288 0.16-0.096 0.384 0.672 0.736 0.992 1.568 0.992 2.56-0.015 0.367-0.024 0.799-0.024 1.232s0.009 0.865 0.026 1.294l-0.002-0.062c0 0.736-0.032 1.472-0.512 2.144 0.16 0.032 0.256 0.032 0.352 0.032h6.528c0.8 0 1.568 0.032 2.368-0.032 0.704-0.032 1.216-0.576 1.216-1.28v-3.136z"></path>
  </svg>