<?xml version="1.0" standalone="no"?><!DOCTYPE svg PUBLIC "-//W3C//DTD SVG 1.1//EN" "http://www.w3.org/Graphics/SVG/1.1/DTD/svg11.dtd"><svg t="1639364456456" class="icon" viewBox="0 0 1024 1024" version="1.1" xmlns="http://www.w3.org/2000/svg" p-id="1113" xmlns:xlink="http://www.w3.org/1999/xlink" width="200" height="200"><defs><style type="text/css"></style></defs><path d="M135.168 491.52h348.16V102.4h-266.24c-45.056 0-81.92 36.864-81.92 81.92v307.2z m0 40.96v307.2c0 45.056 36.864 81.92 81.92 81.92h266.24V532.48h-348.16z m389.12 389.12h266.24c45.056 0 81.92-36.864 81.92-81.92v-307.2h-348.16V921.6z m348.16-430.08V374.784c0-12.288 8.192-20.48 20.48-20.48s20.48 8.192 20.48 20.48V839.68c0 67.584-55.296 122.88-122.88 122.88h-573.44c-67.584 0-122.88-55.296-122.88-122.88V184.32c0-67.584 55.296-122.88 122.88-122.88h573.44c67.584 0 122.88 55.296 122.88 122.88v18.432c0 12.288-8.192 20.48-20.48 20.48s-20.48-8.192-20.48-20.48V184.32c0-45.056-36.864-81.92-81.92-81.92h-266.24v389.12h348.16z" p-id="1114"></path></svg>