<?xml version="1.0" standalone="no"?><!DOCTYPE svg PUBLIC "-//W3C//DTD SVG 1.1//EN" "http://www.w3.org/Graphics/SVG/1.1/DTD/svg11.dtd"><svg t="1650331202872" class="icon" viewBox="0 0 1024 1024" version="1.1" xmlns="http://www.w3.org/2000/svg" p-id="2394" xmlns:xlink="http://www.w3.org/1999/xlink" width="200" height="200"><defs><style type="text/css">@font-face { font-family: feedback-iconfont; src: url("//at.alicdn.com/t/font_1031158_u69w8yhxdu.woff2?t=1630033759944") format("woff2"), url("//at.alicdn.com/t/font_1031158_u69w8yhxdu.woff?t=1630033759944") format("woff"), url("//at.alicdn.com/t/font_1031158_u69w8yhxdu.ttf?t=1630033759944") format("truetype"); }
</style></defs><path d="M585.58 179.92c-0.14-36.68-30.07-66.51-66.74-66.51-36.52 0-66.45 29.73-66.72 66.25l-44.5-0.33c0.46-60.9 50.36-110.43 111.22-110.43 61.11 0 111.01 49.73 111.24 110.84l-44.5 0.18zM846.31 825.94c-23.24 0-45.57-7.17-64.58-20.74l25.86-36.22c11.42 8.15 24.8 12.46 38.72 12.46 25.75 0 66.75-30.55 66.75-66.75 0-25.85-15.22-49.61-38.78-60.53l18.73-40.37c39.21 18.19 64.55 57.79 64.55 100.9 0 61.62-60.86 111.25-111.25 111.25zM178.78 825.94c-61.34 0-111.25-49.91-111.25-111.25 0-47.04 29.85-89.18 74.28-104.84l14.8 41.96c-26.66 9.41-44.58 34.68-44.58 62.88 0 36.81 29.94 66.75 66.75 66.75 9.81 0 22.53-4.76 34.03-12.73l25.36 36.57c-19.22 13.32-40.31 20.66-59.39 20.66z" fill="" p-id="2395"></path><path d="M518.11 947.81c-120.42 0-233.35-53.48-309.83-146.71l-15.29-18.65 19.82-13.74c15.82-10.97 32.72-30.92 32.72-54.02 0-36.81-29.94-66.75-66.75-66.75-7.43 0-14.9 1.3-22.17 3.87l-23.6 8.33-5.51-24.42c-6.57-29.16-9.91-58.91-9.91-88.42 0-186.08 126.28-346.22 307.1-389.44l27.42-6.55-0.03 29.46c0.33 36.53 30.15 66.14 66.75 66.14 25.75 0 66.75-30.55 66.75-66.75v-28.31l27.5 6.37C792.98 202 918.62 362 918.62 547.3c0 30.7-4.58 61.96-13.61 92.91l-7.25 24.83-23.47-10.88c-8.92-4.13-18.34-6.23-27.99-6.23-36.81 0-66.75 29.94-66.75 66.75 0 21.45 10.48 41.74 28.04 54.3l20.49 14.65-17.06 18.52c-81.47 88.49-196.45 145.66-292.91 145.66z m-260.99-158.4c67.34 72.65 161.27 113.89 260.99 113.89 78.8 0 172.8-44.7 244.66-115.27-17.64-20.11-27.72-46.16-27.72-73.35 0-61.34 49.91-111.25 111.25-111.25 7.29 0 14.5 0.71 21.58 2.12 4.14-19.53 6.24-39.05 6.24-58.26 0-156.59-100.92-292.85-248.26-339.35-14.62 48.2-64.55 83.46-107.03 83.46-51.82 0-95.49-35.63-107.79-83.67C263.27 253.99 162.1 390.24 162.1 547.29c0 18.9 1.54 37.94 4.6 56.81 4.02-0.45 8.05-0.67 12.09-0.67 61.34 0 111.25 49.91 111.25 111.25 0 26.9-12 53.6-32.92 74.73z" fill="" p-id="2396"></path><path d="M518.84 291.41c-61.34 0-111.25-49.91-111.25-111.25l0.08-1.99 18.19 1.33h26.27l-0.03 0.83c0.09 36.73 30 66.59 66.75 66.59 25.75 0 66.75-30.55 66.75-66.75l44.49-0.33c0 61.94-60.86 111.57-111.25 111.57z" fill="" p-id="2397"></path></svg>