<?xml version="1.0" standalone="no"?><!DOCTYPE svg PUBLIC "-//W3C//DTD SVG 1.1//EN" "http://www.w3.org/Graphics/SVG/1.1/DTD/svg11.dtd"><svg t="1640165725689" class="icon" viewBox="0 0 1024 1024" version="1.1" xmlns="http://www.w3.org/2000/svg" p-id="1633" xmlns:xlink="http://www.w3.org/1999/xlink" width="200" height="200"><defs><style type="text/css"></style></defs><path d="M170.666667 906.666667c-2.133333 0-4.266667 0-6.4-2.133334-2.133333-2.133333-4.266667-6.4-4.266667-8.533333V298.666667c0-4.266667 2.133333-8.533333 6.4-8.533334l426.666667-213.333333c4.266667-2.133333 6.4-2.133333 10.666666 0 2.133333 2.133333 4.266667 6.4 4.266667 8.533333v170.666667h-21.333333V102.4l-405.333334 202.666667v573.866666l241.066667-119.466666 8.533333 19.2-256 128H170.666667z" p-id="1634"></path><path d="M426.666667 949.333333c-2.133333 0-4.266667 0-6.4-2.133333-2.133333-2.133333-4.266667-6.4-4.266667-8.533333V341.333333c0-4.266667 2.133333-8.533333 6.4-8.533333l426.666667-213.333333c4.266667-2.133333 6.4-2.133333 10.666666 0s4.266667 6.4 4.266667 8.533333v597.333333c0 4.266667-2.133333 8.533333-6.4 8.533334l-426.666667 213.333333c0 2.133333-2.133333 2.133333-4.266666 2.133333z m10.666666-601.6v573.866667l405.333334-202.666667V145.066667l-405.333334 202.666666z" p-id="1635"></path></svg>
