<?xml version="1.0" standalone="no"?><!DOCTYPE svg PUBLIC "-//W3C//DTD SVG 1.1//EN" "http://www.w3.org/Graphics/SVG/1.1/DTD/svg11.dtd"><svg t="1650331366272" class="icon" viewBox="0 0 1024 1024" version="1.1" xmlns="http://www.w3.org/2000/svg" p-id="3184" xmlns:xlink="http://www.w3.org/1999/xlink" width="200" height="200"><defs><style type="text/css">@font-face { font-family: feedback-iconfont; src: url("//at.alicdn.com/t/font_1031158_u69w8yhxdu.woff2?t=1630033759944") format("woff2"), url("//at.alicdn.com/t/font_1031158_u69w8yhxdu.woff?t=1630033759944") format("woff"), url("//at.alicdn.com/t/font_1031158_u69w8yhxdu.ttf?t=1630033759944") format("truetype"); }
</style></defs><path d="M496.64 833.536c-23.552 0-46.08-11.264-59.392-29.696 0 0-6.144-7.168-64.512-56.32-8.192-7.168-17.408-13.312-28.672-21.504l-8.192-6.144c-19.456-13.312-43.008-28.672-72.704-54.272-163.84-136.192-137.216-272.384-118.784-324.608C176.128 254.976 256 194.56 338.944 194.56c65.536 0 119.808 22.528 157.696 45.056 37.888-22.528 92.16-45.056 157.696-45.056 86.016 0 171.008 64.512 203.776 154.624 18.432 51.2 45.056 186.368-113.664 318.464-38.912 32.768-62.464 48.128-81.92 61.44l-4.096 3.072c-9.216 6.144-16.384 10.24-23.552 16.384-43.008 36.864-84.992 65.536-97.28 73.728-12.288 7.168-26.624 11.264-40.96 11.264zM338.944 245.76c-61.44 0-120.832 46.08-145.408 112.64-15.36 41.984-35.84 152.576 102.4 268.288 27.648 23.552 50.176 38.912 68.608 51.2l8.192 6.144c12.288 8.192 23.552 15.36 33.792 24.576 27.648 23.552 63.488 54.272 70.656 62.464 9.216 12.288 22.528 13.312 32.768 7.168 11.264-7.168 51.2-33.792 92.16-69.632 10.24-8.192 18.432-14.336 28.672-20.48l3.072-2.048c19.456-12.288 41.984-27.648 77.824-58.368 133.12-111.616 112.64-220.16 97.28-261.12C784.384 296.96 719.872 245.76 655.36 245.76c-61.44 0-112.64 24.576-143.36 46.08l-14.336 9.216-14.336-9.216c-31.744-20.48-82.944-46.08-144.384-46.08z" p-id="3185" fill=""></path><path d="M719.872 478.208c-3.072 0-5.12 0-8.192-1.024-13.312-4.096-20.48-19.456-16.384-32.768 13.312-39.936-35.84-76.8-35.84-76.8-11.264-8.192-14.336-24.576-5.12-35.84 8.192-11.264 24.576-14.336 35.84-5.12 3.072 2.048 79.872 59.392 55.296 135.168-4.096 9.216-14.336 16.384-25.6 16.384z" p-id="3186" fill=""></path></svg>