<?xml version="1.0" standalone="no"?><!DOCTYPE svg PUBLIC "-//W3C//DTD SVG 1.1//EN" "http://www.w3.org/Graphics/SVG/1.1/DTD/svg11.dtd"><svg t="1650331153612" class="icon" viewBox="0 0 1024 1024" version="1.1" xmlns="http://www.w3.org/2000/svg" p-id="2198" xmlns:xlink="http://www.w3.org/1999/xlink" width="200" height="200"><defs><style type="text/css">@font-face { font-family: feedback-iconfont; src: url("//at.alicdn.com/t/font_1031158_u69w8yhxdu.woff2?t=1630033759944") format("woff2"), url("//at.alicdn.com/t/font_1031158_u69w8yhxdu.woff?t=1630033759944") format("woff"), url("//at.alicdn.com/t/font_1031158_u69w8yhxdu.ttf?t=1630033759944") format("truetype"); }
</style></defs><path d="M879.36512 429.3632v103.936H358.2464a117.7088 117.7088 0 0 0-40.26368-81.33632c-48.44032-41.83552-126.87872-43.8016-173.34272-40.54528V291.84H81.92v512h62.71488v-90.97728h734.72V803.84H942.08V429.3632h-62.71488zM277.15072 499.92192a52.56704 52.56704 0 0 1 18.048 33.39264H144.63488V474.86976c39.40352-2.94912 101.94432-1.3568 132.51584 25.05216zM144.63488 649.728v-53.248h734.72v53.248h-734.72z" fill="" p-id="2199"></path><path d="M650.11712 260.95616h-64.94208V195.65568H522.24v65.30048H457.30816v63.2832H522.24v65.30048h62.92992V324.23936h64.94208v-63.2832z" fill="" p-id="2200"></path></svg>