<?xml version="1.0" standalone="no"?><!DOCTYPE svg PUBLIC "-//W3C//DTD SVG 1.1//EN" "http://www.w3.org/Graphics/SVG/1.1/DTD/svg11.dtd"><svg t="1640932863989" class="icon" viewBox="0 0 1024 1024" version="1.1" xmlns="http://www.w3.org/2000/svg" p-id="2063" xmlns:xlink="http://www.w3.org/1999/xlink" width="200" height="200"><defs><style type="text/css"></style></defs><path d="M523.2 519.2c-2.4 0-4.8-0.8-7.2-1.6L362.4 440c-8-4-11.2-13.6-7.2-21.6l166.4-331.2c4-8 13.6-11.2 21.6-7.2l153.6 76.8c4 1.6 6.4 5.6 8 9.6 1.6 4 0.8 8.8-0.8 12L536.8 510.4c-1.6 4-5.6 6.4-9.6 8-0.8 0.8-2.4 0.8-4 0.8zM391.2 419.2l124.8 62.4 152-302.4-124.8-62.4-152 302.4z" p-id="2064"></path><path d="M626.4 156c-2.4 0-4.8-0.8-7.2-1.6l-73.6-36.8c-4-1.6-6.4-5.6-8-9.6-1.6-4-0.8-8 0.8-12l41.6-83.2c1.6-4 5.6-6.4 9.6-8 4-1.6 8.8-0.8 12 0.8l73.6 36.8c4 1.6 6.4 5.6 8 9.6 1.6 4 1.6 8.8-0.8 12l-41.6 83.2c-2.4 5.6-8 8.8-14.4 8.8zM574.4 96l45.6 22.4L647.2 64l-45.6-22.4-27.2 54.4zM428.8 563.2c-2.4 0-4.8-0.8-7.2-1.6l-59.2-29.6c-8-4-11.2-13.6-7.2-21.6l36-72c1.6-4 5.6-6.4 9.6-8 4-1.6 8.8-0.8 12 0.8l59.2 29.6c8 4 11.2 13.6 7.2 21.6l-36 72c-1.6 4-5.6 6.4-9.6 8-1.6 0-3.2 0.8-4.8 0.8z m-37.6-53.6l31.2 15.2 21.6-43.2-31.2-15.2-21.6 43.2z" p-id="2065"></path><path d="M719.2 1020H265.6c-8.8 0-16-7.2-16-16v-122.4c0-8.8 7.2-16 16-16h20c-35.2-25.6-64.8-56.8-88.8-93.6-3.2-4.8-3.2-11.2-0.8-16 2.4-4.8 8-8 14.4-8h106.4c4 0 8 1.6 11.2 4.8 45.6 43.2 104.8 67.2 167.2 67.2 133.6 0 241.6-108.8 241.6-241.6 0-93.6-55.2-180-140.8-219.2-4-1.6-7.2-4.8-8-9.6-1.6-4-0.8-8.8 0.8-12.8l36.8-73.6c4-8 13.6-11.2 20.8-7.2 124 58.4 204 184.8 204 322.4 0 116-55.2 221.6-146.4 288h15.2c8.8 0 16 7.2 16 16v122.4c0 8-7.2 15.2-16 15.2z m-437.6-32h421.6v-90.4h-56c-7.2 0-13.6-4.8-15.2-12-1.6-7.2 1.6-14.4 8-17.6 110.4-55.2 179.2-166.4 179.2-289.6 0-119.2-67.2-230.4-172-286.4L624.8 336c88 47.2 144 140.8 144 240.8 0 151.2-123.2 273.6-273.6 273.6-68.8 0-133.6-25.6-184.8-72h-68.8c29.6 36.8 66.4 66.4 108 88 6.4 3.2 10.4 10.4 8 17.6-1.6 7.2-8 12-15.2 12h-60.8v92z" p-id="2066"></path><path d="M458.4 736H188.8c-8.8 0-16-7.2-16-16v-68.8c0-8.8 7.2-16 16-16h269.6c8.8 0 16 7.2 16 16V720c0 8.8-7.2 16-16 16z m-253.6-32h237.6v-36.8H204.8V704z" p-id="2067"></path></svg>