<?xml version="1.0" standalone="no"?><!DOCTYPE svg PUBLIC "-//W3C//DTD SVG 1.1//EN" "http://www.w3.org/Graphics/SVG/1.1/DTD/svg11.dtd"><svg t="1640228131478" class="icon" viewBox="0 0 1024 1024" version="1.1" xmlns="http://www.w3.org/2000/svg" p-id="2510" xmlns:xlink="http://www.w3.org/1999/xlink" width="200" height="200"><defs><style type="text/css"></style></defs><path d="M71.321596 509.972449a31.948798 31.948798 0 0 0 19.025919-41.041917c-17.469439-47.718397-26.337278-94.392314-26.337279-138.690552 0-99.430394 33.259518-266.239984 255.999985-266.239984 77.127675 0 105.349114 27.197438 138.035192 58.654717a413.241319 413.241319 0 0 0 34.426877 30.699518 32.022526 32.022526 0 0 0 39.075838 0 400.64612 400.64612 0 0 0 34.652158-31.068158c32.174078-31.293438 60.006396-58.286077 137.809912-58.286077 231.055346 0 255.999985 186.183669 255.999984 266.239984 0 44.359677-8.867839 91.013115-26.378238 138.731512a31.989758 31.989758 0 0 0 19.005439 41.062397 31.64979 31.64979 0 0 0 11.038719 1.96608 32.002046 32.002046 0 0 0 30.023678-20.971518c20.111359-54.804477 30.310398-108.912633 30.310399-160.788471C1024.010179 126.525432 901.396426 0 704.010198 0c-103.772154 0-147.374071 42.332157-182.415349 76.369915-3.23584 3.15392-6.43072 6.28736-9.6256 9.29792-3.15392-2.9696-6.32832-6.00064-9.543679-9.13408C467.015652 42.434557 422.942695 0 320.010221 0 119.633913 0 0.01024 123.473913 0.01024 330.23998c0 51.855357 10.199039 105.922554 30.289918 160.706551a31.92627 31.92627 0 0 0 41.021438 19.025918z m704.573397 205.004788C673.1878 832.65531 555.857887 921.436105 511.969249 952.934343c-43.827197-31.436798-160.99327-120.033273-263.843824-237.895666a31.991806 31.991806 0 1 0-48.230397 42.045438c134.389752 154.009591 287.825903 257.187825 294.297582 261.529584a32.061438 32.061438 0 0 0 35.573758 0c6.47168-4.34176 159.92831-107.560954 294.359023-261.591024a31.991806 31.991806 0 0 0-48.230398-42.045438z m216.125427-138.977272H760.453074L670.89404 247.603185a32.053246 32.053246 0 0 0-30.883838-23.592958h-0.34816a31.948798 31.948798 0 0 0-30.679039 24.248318l-101.375993 405.360616-93.245435-279.736303a32.026622 32.026622 0 0 0-28.999678-21.852159c-14.561279-1.08544-25.538558 7.14752-30.760958 19.374079l-87.674875 204.595187H31.999998a31.999998 31.999998 0 0 0 0 63.999997h255.999985a31.920126 31.920126 0 0 0 29.409278-19.415039l62.853116-146.616311 101.396474 304.148461A31.96723 31.96723 0 0 0 512.010209 799.989712c0.4096 0 0.8192 0 1.2288-0.02048a31.948798 31.948798 0 0 0 29.798398-24.227839l98.324475-393.175016 63.774716 233.840626a32.024574 32.024574 0 0 0 30.883838 23.592959h255.999984a31.999998 31.999998 0 0 0 0-63.999997z" p-id="2511"></path></svg>