<?xml version="1.0" standalone="no"?><!DOCTYPE svg PUBLIC "-//W3C//DTD SVG 1.1//EN" "http://www.w3.org/Graphics/SVG/1.1/DTD/svg11.dtd"><svg t="1640932929473" class="icon" viewBox="0 0 1024 1024" version="1.1" xmlns="http://www.w3.org/2000/svg" p-id="2212" xmlns:xlink="http://www.w3.org/1999/xlink" width="200" height="200"><defs><style type="text/css"></style></defs><path d="M670.4 125.6H353.6c-8.8 0-16-7.2-16-16V20c0-8.8 7.2-16 16-16h317.6c8.8 0 16 7.2 16 16v89.6c-0.8 8.8-8 16-16.8 16z m-300.8-32h285.6V36H369.6v57.6z" p-id="2213"></path><path d="M947.2 1020H76.8c-28.8 0-54.4-16-66.4-42.4-12-26.4-8-56 11.2-77.6L364.8 488c4.8-6.4 8-13.6 8-21.6V109.6c0-8.8 7.2-16 16-16h245.6c8.8 0 16 7.2 16 16v356.8c0 8 3.2 16 8 21.6l343.2 412c18.4 21.6 23.2 51.2 11.2 77.6-11.2 26.4-36.8 42.4-65.6 42.4zM404.8 125.6v340.8c0 15.2-5.6 30.4-15.2 42.4L46.4 920.8c-11.2 12.8-12.8 28.8-6.4 43.2 6.4 15.2 20.8 24 36.8 24h870.4c16.8 0 30.4-8.8 36.8-24 6.4-14.4 4.8-31.2-6.4-43.2L634.4 508.8c-9.6-12-15.2-27.2-15.2-42.4V125.6H404.8z" p-id="2214"></path><path d="M424 684.8c-23.2 0-41.6-18.4-41.6-41.6s18.4-41.6 41.6-41.6c23.2 0 41.6 18.4 41.6 41.6s-18.4 41.6-41.6 41.6z m0-67.2c-14.4 0-25.6 11.2-25.6 25.6s11.2 25.6 25.6 25.6c14.4 0 25.6-11.2 25.6-25.6s-11.2-25.6-25.6-25.6zM560 568c-20.8 0-36.8-16.8-36.8-36.8 0-20.8 16.8-36.8 36.8-36.8 20.8 0 36.8 16.8 36.8 36.8 0.8 20-16 36.8-36.8 36.8z m0-58.4c-12 0-20.8 9.6-20.8 20.8 0 12 9.6 20.8 20.8 20.8 12 0 20.8-9.6 20.8-20.8 0.8-11.2-8.8-20.8-20.8-20.8zM512 338.4c-20.8 0-36.8-16.8-36.8-36.8 0-20.8 16.8-36.8 36.8-36.8 20.8 0 36.8 16.8 36.8 36.8 0 20-16 36.8-36.8 36.8z m0-58.4c-12 0-20.8 9.6-20.8 20.8 0 12 9.6 20.8 20.8 20.8 12 0 20.8-9.6 20.8-20.8 0-11.2-8.8-20.8-20.8-20.8zM947.2 1012H76.8c-25.6 0-48-14.4-59.2-37.6-10.4-23.2-7.2-49.6 9.6-68.8l143.2-171.2c1.6-1.6 4-3.2 6.4-3.2h670.4c2.4 0 4.8 0.8 6.4 3.2l143.2 171.2c16.8 19.2 20.8 45.6 9.6 68.8-11.2 23.2-33.6 37.6-59.2 37.6zM180.8 747.2L40 916c-12.8 14.4-15.2 34.4-7.2 52 8 17.6 24.8 28.8 44 28.8h870.4c19.2 0 36-11.2 44-28.8s4.8-37.6-7.2-52l-140.8-168.8H180.8z" p-id="2215"></path></svg>