<?xml version="1.0" standalone="no"?><!DOCTYPE svg PUBLIC "-//W3C//DTD SVG 1.1//EN" "http://www.w3.org/Graphics/SVG/1.1/DTD/svg11.dtd"><svg t="1640228010146" class="icon" viewBox="0 0 1024 1024" version="1.1" xmlns="http://www.w3.org/2000/svg" p-id="2366" xmlns:xlink="http://www.w3.org/1999/xlink" width="200" height="200"><defs><style type="text/css"></style></defs><path d="M917.333547 51.2v921.6c0 28.288-22.613333 51.2-50.730667 51.2H157.440213A50.986667 50.986667 0 0 1 106.66688 972.8V51.2C106.66688 22.912 129.280213 0 157.397547 0H866.560213C894.63488 0 917.333547 22.954667 917.333547 51.2z m-759.936 0c-0.085333 0-0.085333 921.6-0.085334 921.6h709.290667c0.085333 0 0.085333-921.6 0.085333-921.6H157.397547z m481.28 691.2a25.472 25.472 0 0 0 25.344-25.6c0-14.122667-11.349333-25.6-25.344-25.6H385.280213a25.472 25.472 0 0 0-25.301333 25.6c0 14.122667 11.306667 25.6 25.301333 25.6h253.354667z m-50.688 117.76a25.472 25.472 0 0 0 25.344-25.6c0-14.122667-11.349333-25.6-25.344-25.6H436.053547a25.472 25.472 0 0 0-25.344 25.6c0 14.122667 11.349333 25.6 25.344 25.6h151.978666zM359.97888 256a25.472 25.472 0 0 0-25.301333 25.6V384c0 14.122667 11.349333 25.6 25.301333 25.6h101.333333L436.053547 384v102.4c0 14.122667 11.349333 25.6 25.301333 25.6h101.376a25.472 25.472 0 0 0 25.301333-25.6V384l-25.344 25.6h101.376a25.472 25.472 0 0 0 25.301334-25.6V281.6c0-14.122667-11.349333-25.6-25.344-25.6h-101.290667l25.301333 25.6V179.2c0-14.122667-11.349333-25.6-25.344-25.6H461.35488a25.472 25.472 0 0 0-25.344 25.6v102.4l25.301333-25.6H360.021547z m126.72 25.6V179.2l-25.386667 25.6h101.376l-25.344-25.6v102.4c0 14.122667 11.349333 25.6 25.344 25.6h101.290667l-25.301333-25.6V384l25.344-25.6h-101.376a25.472 25.472 0 0 0-25.301334 25.6v102.4l25.344-25.6H461.312213l25.344 25.6V384c0-14.122667-11.349333-25.6-25.344-25.6H360.021547l25.301333 25.6V281.6l-25.301333 25.6h101.333333a25.472 25.472 0 0 0 25.301333-25.6z" p-id="2367"></path></svg>