<?xml version="1.0" standalone="no"?><!DOCTYPE svg PUBLIC "-//W3C//DTD SVG 1.1//EN" "http://www.w3.org/Graphics/SVG/1.1/DTD/svg11.dtd"><svg t="1640932971671" class="icon" viewBox="0 0 1024 1024" version="1.1" xmlns="http://www.w3.org/2000/svg" p-id="2360" xmlns:xlink="http://www.w3.org/1999/xlink" width="200" height="200"><defs><style type="text/css"></style></defs><path d="M904.8 1020H119.2c-8.8 0-16-7.2-16-16V20c0-8.8 7.2-16 16-16h559.2c4 0 8 1.6 11.2 4.8l225.6 225.6c3.2 3.2 4.8 7.2 4.8 11.2v758.4c0.8 8.8-6.4 16-15.2 16z m-769.6-32h753.6V252.8L672 36H135.2v952z" p-id="2361"></path><path d="M429.6 484H328.8c-4.8 0-8-3.2-8-8V371.2H216c-4.8 0-8-3.2-8-8V262.4c0-4.8 3.2-8 8-8h104.8V149.6c0-4.8 3.2-8 8-8h100.8c4.8 0 8 3.2 8 8v104.8h104.8c4.8 0 8 3.2 8 8v100.8c0 4.8-3.2 8-8 8H437.6v104.8c0 4-3.2 8-8 8z m-92.8-16h84.8V363.2c0-4.8 3.2-8 8-8h104.8V270.4H429.6c-4.8 0-8-3.2-8-8V157.6H336.8v104.8c0 4.8-3.2 8-8 8H224v84.8h104.8c4.8 0 8 3.2 8 8v104.8zM904.8 253.6H679.2c-4.8 0-8-3.2-8-8V20c0-3.2 1.6-6.4 4.8-7.2 3.2-1.6 6.4-0.8 8.8 1.6L910.4 240c2.4 2.4 3.2 5.6 1.6 8.8-1.6 3.2-4 4.8-7.2 4.8z m-217.6-16h198.4L687.2 39.2v198.4zM786.4 676.8H237.6c-4.8 0-8-3.2-8-8s3.2-8 8-8h548.8c4.8 0 8 3.2 8 8 0 4-3.2 8-8 8zM786.4 848.8H237.6c-4.8 0-8-3.2-8-8s3.2-8 8-8h548.8c4.8 0 8 3.2 8 8 0 4-3.2 8-8 8z" p-id="2362"></path></svg>