<?xml version="1.0" standalone="no"?><!DOCTYPE svg PUBLIC "-//W3C//DTD SVG 1.1//EN" "http://www.w3.org/Graphics/SVG/1.1/DTD/svg11.dtd"><svg t="1650331431744" class="icon" viewBox="0 0 1024 1024" version="1.1" xmlns="http://www.w3.org/2000/svg" p-id="3576" xmlns:xlink="http://www.w3.org/1999/xlink" width="200" height="200"><defs><style type="text/css">@font-face { font-family: feedback-iconfont; src: url("//at.alicdn.com/t/font_1031158_u69w8yhxdu.woff2?t=1630033759944") format("woff2"), url("//at.alicdn.com/t/font_1031158_u69w8yhxdu.woff?t=1630033759944") format("woff"), url("//at.alicdn.com/t/font_1031158_u69w8yhxdu.ttf?t=1630033759944") format("truetype"); }
</style></defs><path d="M736.8 858.5H323.2c-22 0-42.8-8.5-58.5-23.9-15.7-15.4-24.6-36-25.1-58l-6.9-267.8c-0.2-10.5-8.9-19-19.3-19l-52.7 0.1c-21.3 0-39.6-12.9-46.7-33.1-7-19.9-0.9-41.3 15.5-54.5l313.3-287.9 0.4-0.3c30.6-24.2 73.2-24.2 103.8 0l0.8 0.7 312.7 287.6c16.4 13.3 22.4 34.6 15.5 54.5-7 20.1-25.3 33-46.5 33h-0.1l-49.6-0.1c-5.1 0-10 2-13.6 5.6-3.7 3.6-5.7 8.5-5.7 13.7v119c0 8.3-6.7 15-15 15s-15-6.7-15-15v-119c0-13.2 5.1-25.6 14.5-34.9 9.3-9.3 21.7-14.4 34.8-14.4h0.1l49.6 0.1h0.1c12.7 0 17.2-9.9 18.2-12.9 1.1-3 3.8-13.6-6.2-21.5l-0.8-0.7L528 137.4c-19.4-15.1-46.3-15.1-65.7 0L149 425.3l-0.4 0.3c-10 7.9-7.3 18.5-6.2 21.5 1.1 3 5.5 12.9 18.2 12.9h0.1l52.7-0.1h0.1c26.6 0 48.7 21.6 49.3 48.3l6.9 267.8c0.6 29 24.7 52.5 53.6 52.5h413.6c8.3 0 15 6.7 15 15s-6.8 15-15.1 15z" fill="" p-id="3577"></path><path d="M855.9 709.5h-230c-8.3 0-15-6.7-15-15s6.7-15 15-15h230c8.3 0 15 6.7 15 15s-6.7 15-15 15z" fill="" p-id="3578"></path><path d="M700.1 640.3l-63.6 63.6c-5.9 5.9-15.4 5.9-21.2 0-5.9-5.9-5.9-15.4 0-21.2l63.6-63.6c5.9-5.9 15.4-5.9 21.2 0 5.9 5.8 5.9 15.3 0 21.2z" fill="" p-id="3579"></path><path d="M625.9 747h230c8.3 0 15 6.7 15 15s-6.7 15-15 15h-230c-8.3 0-15-6.7-15-15s6.7-15 15-15z" fill="" p-id="3580"></path><path d="M781.6 816.2l63.6-63.6c5.9-5.9 15.4-5.9 21.2 0 5.9 5.9 5.9 15.4 0 21.2l-63.6 63.6c-5.9 5.9-15.4 5.9-21.2 0-5.8-5.9-5.8-15.4 0-21.2z" fill="" p-id="3581"></path><path d="M405 336.9c0-8.3 6.7-15 15-15h150c8.3 0 15 6.7 15 15s-6.7 15-15 15H420c-8.2 0-15-6.7-15-15z" fill="" p-id="3582"></path><path d="M495 426.9c-8.3 0-15-6.7-15-15v-150c0-8.3 6.7-15 15-15s15 6.7 15 15v150c0 8.3-6.7 15-15 15z" fill="" p-id="3583"></path></svg>