<?xml version="1.0" standalone="no"?><!DOCTYPE svg PUBLIC "-//W3C//DTD SVG 1.1//EN" "http://www.w3.org/Graphics/SVG/1.1/DTD/svg11.dtd"><svg t="1650331323506" class="icon" viewBox="0 0 1024 1024" version="1.1" xmlns="http://www.w3.org/2000/svg" p-id="2989" xmlns:xlink="http://www.w3.org/1999/xlink" width="200" height="200"><defs><style type="text/css">@font-face { font-family: feedback-iconfont; src: url("//at.alicdn.com/t/font_1031158_u69w8yhxdu.woff2?t=1630033759944") format("woff2"), url("//at.alicdn.com/t/font_1031158_u69w8yhxdu.woff?t=1630033759944") format("woff"), url("//at.alicdn.com/t/font_1031158_u69w8yhxdu.ttf?t=1630033759944") format("truetype"); }
</style></defs><path d="M882.858667 860.330667H173.738667c-18.773333 0-34.133333 15.36-34.133334 34.133333s15.36 34.133333 34.133334 34.133333h709.12a34.133333 34.133333 0 1 0 0-68.266666zM797.866667 528.725333c0-148.650667-121.002667-269.653333-269.653334-269.653333s-269.653333 121.002667-269.653333 269.653333v269.824h539.306667V528.725333z m-68.266667 201.557334H456.021333v-116.053334c0-18.773333-15.36-34.133333-34.133333-34.133333s-34.133333 15.36-34.133333 34.133333v116.053334h-60.928V528.725333c0-110.933333 90.282667-201.386667 201.386666-201.386666s201.386667 90.282667 201.386667 201.386666v201.557334zM528.384 197.973333c18.773333 0 34.133333-15.36 34.133333-34.133333V102.229333c0-18.773333-15.36-34.133333-34.133333-34.133333s-34.133333 15.36-34.133333 34.133333V163.84a34.133333 34.133333 0 0 0 34.133333 34.133333zM201.898667 389.290667c11.776 0 23.210667-6.144 29.525333-17.066667 9.386667-16.384 3.754667-37.205333-12.458667-46.592L165.546667 294.741333c-16.384-9.386667-37.205333-3.754667-46.592 12.458667-9.386667 16.384-3.754667 37.205333 12.458666 46.592l53.418667 30.890667c5.461333 3.242667 11.264 4.608 17.066667 4.608zM940.202667 302.762667a33.928533 33.928533 0 0 0-46.592-12.458667l-53.418667 30.890667c-16.384 9.386667-21.845333 30.378667-12.458667 46.592 6.314667 10.922667 17.749333 17.066667 29.525334 17.066666 5.802667 0 11.605333-1.536 17.066666-4.608l53.418667-30.890666c16.213333-9.386667 21.845333-30.208 12.458667-46.592z" p-id="2990" fill=""></path></svg>