<?xml version="1.0" standalone="no"?><!DOCTYPE svg PUBLIC "-//W3C//DTD SVG 1.1//EN" "http://www.w3.org/Graphics/SVG/1.1/DTD/svg11.dtd"><svg t="1650331229858" class="icon" viewBox="0 0 1024 1024" version="1.1" xmlns="http://www.w3.org/2000/svg" p-id="2591" xmlns:xlink="http://www.w3.org/1999/xlink" width="200" height="200"><defs><style type="text/css">@font-face { font-family: feedback-iconfont; src: url("//at.alicdn.com/t/font_1031158_u69w8yhxdu.woff2?t=1630033759944") format("woff2"), url("//at.alicdn.com/t/font_1031158_u69w8yhxdu.woff?t=1630033759944") format("woff"), url("//at.alicdn.com/t/font_1031158_u69w8yhxdu.ttf?t=1630033759944") format("truetype"); }
</style></defs><path d="M401.92 604.16c5.12 10.24 7.68 20.48 7.68 33.28 0 20.48-7.68 40.96-23.04 53.76l-10.24 10.24c-43.52 43.52-97.28 71.68-158.72 84.48l120.32-120.32 64-61.44m2.56-64c-7.68 0-12.8 2.56-17.92 7.68l-81.92 81.92-171.52 171.52c-15.36 15.36-5.12 43.52 17.92 43.52h5.12c92.16 0 186.88-35.84 258.56-107.52l10.24-10.24c51.2-51.2 51.2-130.56 0-181.76-7.68-2.56-12.8-5.12-20.48-5.12zM855.04 153.6c2.56 0 5.12 0 10.24 5.12l30.72 51.2c2.56 5.12 2.56 10.24-2.56 12.8l-373.76 291.84c-2.56 2.56-5.12 2.56-7.68 2.56-2.56 0-5.12 0-7.68-2.56-5.12-5.12-5.12-10.24 0-15.36l343.04-343.04c2.56-2.56 5.12-2.56 7.68-2.56m0-51.2c-15.36 0-30.72 5.12-43.52 17.92l-343.04 343.04c-23.04 23.04-23.04 64 0 87.04 12.8 12.8 28.16 17.92 43.52 17.92 12.8 0 25.6-5.12 38.4-12.8l373.76-291.84c25.6-20.48 30.72-53.76 15.36-81.92l-30.72-51.2c-12.8-17.92-33.28-28.16-53.76-28.16zM176.64 921.6c0 12.8-12.8 25.6-25.6 25.6h-51.2c-15.36 0-25.6-12.8-25.6-25.6s10.24-25.6 25.6-25.6h51.2c12.8 0 25.6 12.8 25.6 25.6zM330.24 921.6c0 12.8-12.8 25.6-25.6 25.6h-51.2c-15.36 0-25.6-12.8-25.6-25.6s10.24-25.6 25.6-25.6h51.2c12.8 0 25.6 12.8 25.6 25.6zM483.84 921.6c0 12.8-12.8 25.6-25.6 25.6h-51.2c-15.36 0-25.6-12.8-25.6-25.6s10.24-25.6 25.6-25.6h51.2c12.8 0 25.6 12.8 25.6 25.6zM637.44 921.6c0 15.36-10.24 25.6-25.6 25.6h-51.2c-15.36 0-25.6-10.24-25.6-25.6s10.24-25.6 25.6-25.6h51.2c12.8 0 25.6 10.24 25.6 25.6zM893.44 921.6c0 15.36-10.24 25.6-25.6 25.6h-153.6c-15.36 0-25.6-10.24-25.6-25.6s10.24-25.6 25.6-25.6h153.6c12.8 0 25.6 10.24 25.6 25.6z" p-id="2592" fill=""></path></svg>