<?xml version="1.0" standalone="no"?><!DOCTYPE svg PUBLIC "-//W3C//DTD SVG 1.1//EN" "http://www.w3.org/Graphics/SVG/1.1/DTD/svg11.dtd"><svg t="1640932764231" class="icon" viewBox="0 0 1024 1024" version="1.1" xmlns="http://www.w3.org/2000/svg" p-id="1762" xmlns:xlink="http://www.w3.org/1999/xlink" width="200" height="200"><defs><style type="text/css"></style></defs><path d="M982.4 1020h-2.4c-76.8-2.4-248.8-131.2-286.4-172l-19.2-20.8c-14.4-15.2-17.6-39.2-8.8-57.6 3.2-7.2 2.4-16-3.2-22.4l-148-160c-2.4-2.4-6.4-3.2-9.6-2.4l-13.6 5.6c-15.2 6.4-33.6 2.4-44.8-9.6L23.2 124c-26.4-28.8-24.8-73.6 3.2-100.8C40 10.4 58.4 3.2 76.8 4c19.2 0.8 36.8 8.8 49.6 22.4l889.6 960c5.6 6.4 5.6 16.8-0.8 22.4-8 7.2-19.2 11.2-32.8 11.2zM508 552c11.2 0 21.6 4.8 29.6 12.8l148.8 160.8c14.4 15.2 17.6 39.2 8.8 57.6-3.2 7.2-2.4 16 3.2 22.4l19.2 20.8c34.4 37.6 187.2 150.4 256 160.8L103.2 48.8c-7.2-8-16.8-12-27.2-12C65.6 35.2 56 39.2 48 46.4c-16 15.2-16.8 40-1.6 56l423.2 456.8c2.4 2.4 6.4 3.2 9.6 2.4l13.6-5.6c4.8-2.4 10.4-4 15.2-4z" p-id="1763"></path></svg>