<?xml version="1.0" standalone="no"?><!DOCTYPE svg PUBLIC "-//W3C//DTD SVG 1.1//EN" "http://www.w3.org/Graphics/SVG/1.1/DTD/svg11.dtd"><svg t="1650331261273" class="icon" viewBox="0 0 1024 1024" version="1.1" xmlns="http://www.w3.org/2000/svg" p-id="2792" xmlns:xlink="http://www.w3.org/1999/xlink" width="200" height="200"><defs><style type="text/css">@font-face { font-family: feedback-iconfont; src: url("//at.alicdn.com/t/font_1031158_u69w8yhxdu.woff2?t=1630033759944") format("woff2"), url("//at.alicdn.com/t/font_1031158_u69w8yhxdu.woff?t=1630033759944") format("woff"), url("//at.alicdn.com/t/font_1031158_u69w8yhxdu.ttf?t=1630033759944") format("truetype"); }
</style></defs><path d="M313.5 960v-29.8c79.3 0 183.5-67.9 184-181.3l29.8 0.1c-0.5 135.5-124.4 211-213.8 211zM631.8 143.3c48 0 87.2 33.3 89.4 75-5.7 21.4-29.8 114.4-29.8 166.3 0 40.3 12.4 68.2 21.4 88.5 4.2 9.6 7.9 17.8 8.7 24 6.5 48.2-4.4 90.1-31.7 121.3-35.3 40.4-96.7 61.8-177.4 61.8-83 0-145.7-22.3-181.3-64.5-26.2-31.1-35.9-71.7-28-117.5 1.1-6.3 4.6-14.3 8.7-23.6 9.1-20.6 21.5-48.8 21.5-90 0-51.9-24-145-29.7-166.3 2.2-41.7 41.4-75 89.4-75h238.8m0-29.9H393.2c-65.6 0-119.3 48.8-119.3 108.5 0 0 29.8 108.5 29.8 162.7 0 54.3-25 80.9-29.8 108.5C253.5 610.9 333.5 710 512.5 710s254.7-98.5 238.6-216.9c-3.8-27.7-29.9-54.2-29.9-108.5 0-54.2 29.9-162.7 29.9-162.7 0-59.6-53.7-108.5-119.3-108.5z" p-id="2793" fill=""></path><path d="M571.1 122.5h-29.8c0-15.8-12.8-28.6-28.6-28.6s-28.6 12.8-28.6 28.6h-29.8c0-32.2 26.2-58.5 58.4-58.5 32.1 0 58.4 26.2 58.4 58.5zM482.8 692.7h59.7v58.8h-59.7zM452.9 458.9h119.3v29.8H452.9z" p-id="2794" fill=""></path><path d="M497.6 414.2h29.8v119.3h-29.8zM522.2 319.1c-9.4 0-19.5-1-30.3-3.6-13.3-3.1-20.1-6.7-26.7-10.2-4.4-2.3-9.2-4.8-17.3-7.7-39.7-14.4-87.8-11.8-142.9 7.5l-9.8-28.1c61.7-21.6 116.5-24.1 162.8-7.4 9.9 3.6 15.8 6.6 21 9.4 6 3.2 10 5.3 19.6 7.5 27.4 6.5 47 1 71.7-6.1 17.6-4.9 37.4-10.5 62.1-11.7 31.9-1.5 64.5 4.7 97.2 18.6l-11.7 27.5c-28.5-12.1-56.7-17.4-84.2-16.3-21.3 1-38.6 5.9-55.5 10.7-17.3 4.8-35.2 9.9-56 9.9z" p-id="2795" fill=""></path></svg>