<?xml version="1.0" standalone="no"?><!DOCTYPE svg PUBLIC "-//W3C//DTD SVG 1.1//EN" "http://www.w3.org/Graphics/SVG/1.1/DTD/svg11.dtd"><svg t="1640932366340" class="icon" viewBox="0 0 1024 1024" version="1.1" xmlns="http://www.w3.org/2000/svg" p-id="1615" xmlns:xlink="http://www.w3.org/1999/xlink" width="200" height="200"><defs><style type="text/css"></style></defs><path d="M420.8 173.6H111.2c-8.8 0-16-7.2-16-16v-88c0-8.8 7.2-16 16-16h310.4c8.8 0 16 7.2 16 16v88c-0.8 8.8-7.2 16-16.8 16z m-293.6-32h278.4v-56H127.2v56zM420.8 326.4H111.2c-8.8 0-16-7.2-16-16v-88c0-8.8 7.2-16 16-16h310.4c8.8 0 16 7.2 16 16v88c-0.8 8.8-7.2 16-16.8 16z m-293.6-32h278.4v-56H127.2v56zM266.4 969.6c-4 0-8-1.6-11.2-4.8L8.8 719.2c-4.8-4.8-5.6-11.2-3.2-17.6 2.4-5.6 8-9.6 14.4-9.6h75.2V376c0-8.8 7.2-16 16-16h310.4c8.8 0 16 7.2 16 16v316H512c6.4 0 12 4 14.4 9.6 2.4 5.6 0.8 12.8-3.2 17.6l-246.4 246.4c-2.4 2.4-6.4 4-10.4 4z m-208-245.6l207.2 207.2 207.2-207.2h-52c-8.8 0-16-7.2-16-16V392H127.2v316c0 8.8-7.2 16-16 16H58.4zM912.8 969.6H603.2c-8.8 0-16-7.2-16-16V332H512c-6.4 0-12-4-14.4-9.6-2.4-5.6-0.8-12.8 3.2-17.6L746.4 59.2c6.4-6.4 16-6.4 22.4 0l246.4 245.6c4.8 4.8 5.6 11.2 3.2 17.6-2.4 5.6-8 9.6-14.4 9.6h-75.2v621.6c0 8.8-6.4 16-16 16z m-293.6-32h278.4V316c0-8.8 7.2-16 16-16h52L758.4 92.8l-208 207.2h52c8.8 0 16 7.2 16 16v621.6z" p-id="1616"></path><path d="M841.6 905.6c-4.8 0-8-3.2-8-8V310.4c0-4.8 3.2-8 8-8s8 3.2 8 8v588c0 4-3.2 7.2-8 7.2z" p-id="1617"></path></svg>