<?xml version="1.0" standalone="no"?><!DOCTYPE svg PUBLIC "-//W3C//DTD SVG 1.1//EN" "http://www.w3.org/Graphics/SVG/1.1/DTD/svg11.dtd"><svg t="1640932810563" class="icon" viewBox="0 0 1024 1024" version="1.1" xmlns="http://www.w3.org/2000/svg" p-id="1908" xmlns:xlink="http://www.w3.org/1999/xlink" width="200" height="200"><defs><style type="text/css"></style></defs><path d="M68 1020c-18.4 0-36-7.2-48.8-20.8a60.16 60.16 0 0 1-16-44c10.4-141.6 59.2-488 290.4-641.6 10.4-7.2 23.2-11.2 36-11.2 36 0 64.8 27.2 64.8 60.8v457.6c0 19.2-8.8 36.8-24.8 48-38.4 28-125.6 84-276 145.6-8 4-16.8 5.6-25.6 5.6z m262.4-685.6c-6.4 0-12.8 1.6-18.4 5.6-219.2 146.4-266.4 480.8-276 617.6-0.8 9.6 3.2 16 7.2 20 8.8 9.6 24.8 13.6 38.4 8 147.2-60.8 232-115.2 269.6-141.6 7.2-5.6 12-13.6 12-22.4V363.2c0-16.8-16.8-28.8-32.8-28.8zM956 1020c-8.8 0-17.6-1.6-25.6-4.8-150.4-61.6-237.6-117.6-276-145.6-16-11.2-24.8-28.8-24.8-48V363.2c0-33.6 28.8-60.8 64.8-60.8 12.8 0 25.6 4 36 11.2 231.2 153.6 280 500 290.4 641.6 0.8 16-4.8 32-16 44-12.8 13.6-30.4 20.8-48.8 20.8zM693.6 334.4c-16 0-32.8 12-32.8 28.8v457.6c0 8.8 4 16.8 12 22.4 37.6 27.2 122.4 81.6 269.6 141.6 4 1.6 8.8 2.4 13.6 2.4 9.6 0 19.2-4 24.8-10.4 4-4 8-10.4 7.2-20-9.6-136.8-56.8-471.2-276-617.6-5.6-3.2-12-4.8-18.4-4.8z" p-id="1909"></path><path d="M379.2 653.6c-2.4 0-4 0-6.4-0.8-6.4-2.4-9.6-8-9.6-15.2V524c0-4 1.6-8 4.8-11.2l88-91.2V20c0-8.8 7.2-16 16-16h80c8.8 0 16 7.2 16 16v401.6l88 91.2c3.2 3.2 4.8 7.2 4.8 11.2v113.6c0 6.4-4 12-9.6 15.2-6.4 2.4-12.8 0.8-17.6-4L512 523.2 390.4 648.8c-3.2 3.2-7.2 4.8-11.2 4.8zM512 484c4 0 8.8 1.6 11.2 4.8l105.6 108.8v-67.2l-88-91.2c-3.2-3.2-4.8-7.2-4.8-11.2v-392h-48.8v392.8c0 4-1.6 8-4.8 11.2l-88 91.2v67.2l105.6-108.8c3.2-3.2 8-5.6 12-5.6z" p-id="1910"></path><path d="M291.2 605.6c-22.4 0-44-14.4-52.8-35.2-2.4-5.6-3.2-11.2-4.8-16.8-1.6-5.6-2.4-11.2-4.8-16-3.2-7.2-10.4-12.8-16-10.4-4 1.6-8.8 0-10.4-4-1.6-4 0-8.8 4-10.4 14.4-6.4 30.4 4.8 36.8 19.2 3.2 6.4 4 12.8 5.6 19.2 0.8 4.8 2.4 9.6 4 14.4 7.2 17.6 28.8 28.8 46.4 24 1.6-0.8 2.4-0.8 2.4-0.8 1.6-0.8 0.8-6.4 0-9.6-0.8-7.2-1.6-16.8 5.6-23.2 4.8-4.8 12-4.8 16.8-5.6h0.8c16-0.8 32-8 44-19.2 3.2-3.2 8-3.2 11.2 0 3.2 3.2 3.2 8 0 11.2-14.4 14.4-34.4 23.2-54.4 24h-0.8c-2.4 0-5.6 0-6.4 0.8-1.6 1.6-0.8 6.4 0 10.4 0.8 7.2 1.6 16.8-5.6 24-3.2 2.4-6.4 4-9.6 4.8-3.2-0.8-7.2-0.8-12-0.8z" p-id="1911"></path><path d="M125.6 772c-1.6 0-4 0-5.6-0.8-4-1.6-6.4-5.6-5.6-10.4 1.6-4 5.6-6.4 10.4-5.6 0 0 1.6 0.8 3.2-0.8 2.4-1.6 4.8-4.8 6.4-8.8 0.8-4 0.8-8.8 0.8-13.6 0-4 0-8.8 0.8-12.8 2.4-17.6 13.6-32 23.2-43.2 7.2-8.8 16.8-20.8 31.2-24.8 1.6 0 2.4-0.8 4-0.8 2.4 0 4-0.8 4.8-1.6 3.2-1.6 3.2-8 4-14.4 0-2.4 0-4.8 0.8-7.2 3.2-26.4 26.4-42.4 47.2-56 4-2.4 8.8-0.8 11.2 2.4 2.4 4 0.8 8.8-2.4 11.2-18.4 11.2-37.6 24.8-40 44.8 0 1.6-0.8 4-0.8 5.6-0.8 8.8-1.6 20-11.2 26.4-4 2.4-8 3.2-11.2 4-0.8 0-1.6 0-3.2 0.8-8.8 2.4-15.2 9.6-22.4 19.2-8 10.4-17.6 22.4-20 36-0.8 3.2-0.8 7.2-0.8 11.2 0 5.6 0 11.2-1.6 17.6-1.6 8-7.2 15.2-13.6 19.2-3.2 1.6-6.4 2.4-9.6 2.4zM332 786.4c-1.6 0-3.2 0-4-0.8-28.8-17.6-44-57.6-36-96l0.8-2.4c0.8-4.8 2.4-9.6 0.8-12.8-1.6-4.8-5.6-8-10.4-12.8-2.4-2.4-5.6-4-7.2-6.4-17.6-17.6-17.6-49.6-1.6-68 3.2-3.2 8-3.2 11.2-0.8 3.2 3.2 3.2 8 0.8 11.2-11.2 12-10.4 34.4 0.8 46.4 1.6 1.6 4 4 6.4 5.6 6.4 5.6 13.6 11.2 16 20.8 1.6 7.2 0 14.4-0.8 20.8l-0.8 2.4c-5.6 27.2 2.4 63.2 28.8 79.2 4 2.4 4.8 7.2 2.4 11.2-2.4 1.6-4.8 2.4-7.2 2.4z" p-id="1912"></path><path d="M233.6 840.8c-2.4 0-5.6-1.6-7.2-4-16.8-27.2-30.4-56.8-40-88-3.2-9.6-5.6-20-6.4-31.2v-9.6c0-8 0.8-16-3.2-21.6-0.8-1.6-3.2-3.2-4.8-4.8-4-4-9.6-9.6-10.4-17.6 0-4.8 3.2-8 7.2-8.8 4 0 8 3.2 8.8 7.2 0 2.4 2.4 4.8 5.6 7.2 2.4 2.4 4.8 4 6.4 7.2 7.2 9.6 6.4 20.8 6.4 31.2v8.8c0 8.8 2.4 16.8 5.6 27.2 9.6 29.6 22.4 57.6 38.4 84.8 2.4 4 0.8 8.8-2.4 11.2-0.8 0.8-2.4 0.8-4 0.8zM264.8 746.4h-1.6c-4-0.8-7.2-4.8-6.4-8.8 0.8-4 0-8.8 0-13.6-0.8-8.8-1.6-18.4 4-28 3.2-5.6 9.6-10.4 16.8-11.2 7.2-1.6 13.6 0 19.2 3.2 4 2.4 4.8 7.2 2.4 11.2-2.4 4-7.2 4.8-11.2 2.4-1.6-1.6-4.8-1.6-7.2-0.8-2.4 0.8-4.8 2.4-6.4 4-2.4 4.8-2.4 10.4-1.6 18.4 0.8 5.6 0.8 11.2 0 17.6-0.8 3.2-4.8 5.6-8 5.6z" p-id="1913"></path><path d="M128 912c-4.8-0.8-8-4-8-8.8 0.8-12 8.8-22.4 24-31.2 1.6-0.8 3.2-1.6 4.8-3.2 7.2-4 14.4-8 18.4-14.4 4.8-7.2 4.8-17.6 4.8-28.8v-8c0.8-21.6 9.6-37.6 24.8-41.6 4-1.6 8.8 1.6 9.6 5.6 1.6 4-1.6 8.8-5.6 9.6-8.8 2.4-12.8 16-12.8 27.2v8c0 12 0 25.6-8 37.6-6.4 9.6-15.2 14.4-24 19.2l-4.8 2.4c-10.4 5.6-15.2 12-16 18.4 0.8 4.8-3.2 8-7.2 8zM319.2 555.2h-1.6c-11.2-1.6-20.8-8.8-27.2-19.2-6.4-11.2-8.8-23.2-4.8-34.4 1.6-4.8 4-9.6 6.4-13.6l4.8-9.6c5.6-14.4-0.8-32.8-14.4-40-4-2.4-5.6-7.2-3.2-11.2 2.4-4 7.2-5.6 11.2-3.2 20 11.2 29.6 37.6 21.6 60-1.6 4-3.2 8-5.6 11.2-2.4 4-4 7.2-4.8 10.4-2.4 6.4-0.8 14.4 3.2 21.6 4 6.4 9.6 10.4 16 12 4 0.8 7.2 4.8 6.4 9.6-0.8 4-4 6.4-8 6.4zM290.4 840.8c-13.6 0-26.4-2.4-36.8-12-4-4-7.2-8-9.6-12-2.4-3.2-4-5.6-6.4-8-3.2-3.2-8.8-5.6-11.2-4-3.2 2.4-8.8 2.4-11.2-1.6-2.4-3.2-2.4-8.8 1.6-11.2 10.4-8 24.8-3.2 32.8 5.6 3.2 3.2 5.6 6.4 8 10.4 2.4 3.2 4.8 6.4 7.2 8.8 9.6 8.8 25.6 8 40.8 6.4 4.8 0 8 3.2 8.8 7.2 0.8 4-3.2 8-7.2 8.8-5.6 0.8-11.2 1.6-16.8 1.6z" p-id="1914"></path><path d="M732.8 605.6c-4 0-8.8-0.8-12.8-1.6-2.4-0.8-6.4-1.6-9.6-4.8-7.2-6.4-6.4-16.8-5.6-24 0.8-4 0.8-8.8 0-10.4-0.8-0.8-4-0.8-6.4-0.8h-0.8c-20-0.8-40-9.6-54.4-24-3.2-3.2-3.2-8 0-11.2 3.2-3.2 8-3.2 11.2 0 12 11.2 27.2 18.4 44 19.2h0.8c4.8 0 11.2 0.8 16.8 5.6 7.2 6.4 6.4 16.8 5.6 23.2-0.8 4-0.8 8.8 0 9.6 0 0 0.8 0.8 2.4 0.8 18.4 4.8 39.2-6.4 46.4-24 1.6-4 3.2-8.8 4-14.4 1.6-6.4 3.2-12.8 5.6-19.2 6.4-14.4 21.6-24.8 36.8-19.2 4 1.6 5.6 6.4 4 10.4-1.6 4-6.4 5.6-10.4 4-5.6-2.4-12.8 4-16 10.4-2.4 4.8-3.2 10.4-4.8 16-1.6 5.6-2.4 11.2-4.8 16.8-8 23.2-30.4 37.6-52 37.6z" p-id="1915"></path><path d="M898.4 772c-3.2 0-7.2-0.8-10.4-2.4-6.4-4-12-11.2-13.6-19.2-1.6-6.4-1.6-12-1.6-17.6 0-4 0-7.2-0.8-11.2-1.6-13.6-11.2-25.6-20-36-7.2-8.8-14.4-16.8-22.4-19.2-0.8 0-1.6-0.8-3.2-0.8-3.2-0.8-7.2-1.6-11.2-4-9.6-6.4-10.4-17.6-11.2-26.4 0-2.4 0-4-0.8-5.6-2.4-20-22.4-33.6-40-44.8-4-2.4-4.8-7.2-2.4-11.2 2.4-4 7.2-4.8 11.2-2.4 20.8 12.8 44 29.6 47.2 56 0 2.4 0.8 4.8 0.8 7.2 0.8 6.4 0.8 12 4 14.4 0.8 0.8 3.2 0.8 4.8 1.6 1.6 0 2.4 0.8 4 0.8 14.4 4 24 16 31.2 24.8 8.8 11.2 20.8 25.6 23.2 43.2 0.8 4.8 0.8 8.8 0.8 12.8 0 4.8 0 9.6 0.8 13.6 0.8 3.2 3.2 7.2 6.4 8.8 1.6 0.8 2.4 0.8 3.2 0.8 4-1.6 8.8 0.8 10.4 5.6 1.6 4-0.8 8.8-5.6 10.4-0.8 0.8-2.4 0.8-4.8 0.8zM692 786.4c-2.4 0-5.6-1.6-7.2-4-2.4-4-0.8-8.8 2.4-11.2 26.4-16 34.4-52 28.8-79.2l-0.8-2.4c-1.6-6.4-3.2-13.6-0.8-20.8 2.4-9.6 9.6-15.2 16-20.8 2.4-1.6 4-4 6.4-5.6 11.2-12 12-33.6 0.8-46.4-3.2-3.2-2.4-8 0.8-11.2 3.2-3.2 8-2.4 11.2 0.8 16.8 18.4 16 50.4-1.6 68-2.4 2.4-4.8 4.8-7.2 6.4-4.8 4-9.6 8-10.4 12.8-0.8 4 0 8 0.8 12.8l0.8 2.4c8 38.4-7.2 78.4-36 96-0.8 2.4-2.4 2.4-4 2.4z" p-id="1916"></path><path d="M790.4 840.8c-1.6 0-3.2 0-4-0.8-4-2.4-4.8-7.2-2.4-11.2 16-26.4 28.8-54.4 38.4-84.8 3.2-9.6 5.6-18.4 5.6-27.2v-8.8c0-10.4-0.8-21.6 6.4-31.2 2.4-3.2 4.8-4.8 6.4-7.2 3.2-2.4 5.6-4.8 5.6-7.2 0-4.8 4-8 8.8-7.2 4.8 0 8 4 7.2 8.8-0.8 8-6.4 13.6-10.4 17.6l-4.8 4.8c-4 4.8-3.2 12.8-3.2 21.6v9.6c0 11.2-3.2 21.6-6.4 31.2-9.6 31.2-23.2 60-40 88-1.6 2.4-4.8 4-7.2 4zM759.2 746.4c-4 0-7.2-2.4-8-6.4-0.8-5.6-0.8-12 0-17.6 0.8-7.2 0.8-13.6-1.6-18.4-1.6-2.4-3.2-4-6.4-4-2.4-0.8-5.6 0-7.2 0.8-4 2.4-8.8 1.6-11.2-2.4s-0.8-8 3.2-10.4c5.6-4 12.8-4.8 19.2-3.2 7.2 1.6 12.8 5.6 16.8 11.2 5.6 8.8 4.8 19.2 4 28 0 4.8-0.8 9.6 0 13.6s-2.4 8.8-6.4 8.8h-2.4z" p-id="1917"></path><path d="M896 912c-4 0-8-3.2-8-7.2-0.8-6.4-5.6-12.8-16-18.4l-4.8-2.4c-8-4.8-17.6-10.4-24-19.2-7.2-11.2-8-25.6-8-37.6v-8c0-11.2-4-24-12.8-27.2-4-1.6-6.4-5.6-5.6-9.6 1.6-4 5.6-6.4 9.6-5.6 14.4 4 24 20 24.8 41.6v8c0 11.2 0 21.6 4.8 28.8 4 6.4 11.2 9.6 18.4 14.4 1.6 0.8 3.2 1.6 4.8 3.2 14.4 8.8 22.4 19.2 24 31.2 0.8 4-2.4 8-7.2 8zM704.8 555.2c-4 0-7.2-2.4-8-6.4-0.8-4 2.4-8.8 6.4-9.6 6.4-0.8 12-5.6 16-12s5.6-15.2 3.2-21.6c-0.8-3.2-3.2-7.2-4.8-10.4-1.6-3.2-4-7.2-5.6-11.2-8-21.6 1.6-48.8 21.6-60 4-2.4 8.8-0.8 11.2 3.2 2.4 4 0.8 8.8-3.2 11.2-12.8 7.2-19.2 25.6-14.4 40 0.8 3.2 2.4 6.4 4.8 9.6 2.4 4 4.8 8.8 6.4 13.6 3.2 11.2 1.6 24-4.8 34.4-6.4 10.4-16 17.6-27.2 19.2h-1.6zM733.6 840.8c-5.6 0-11.2-0.8-16.8-0.8-4-0.8-8-4-7.2-8.8 0.8-4.8 4-8 8.8-7.2 15.2 1.6 31.2 2.4 40.8-6.4 2.4-2.4 4.8-5.6 7.2-8.8 2.4-3.2 4.8-7.2 8-10.4 8-8.8 22.4-13.6 32.8-5.6 3.2 2.4 4 8 1.6 11.2-2.4 3.2-8 4-11.2 1.6-2.4-1.6-8 0.8-11.2 4-2.4 2.4-4 4.8-6.4 8-2.4 4-5.6 8-9.6 12-10.4 8.8-23.2 11.2-36.8 11.2z" p-id="1918"></path></svg>