<?xml version="1.0" standalone="no"?><!DOCTYPE svg PUBLIC "-//W3C//DTD SVG 1.1//EN" "http://www.w3.org/Graphics/SVG/1.1/DTD/svg11.dtd"><svg t="1638933400376" class="icon" viewBox="0 0 1033 1024" version="1.1" xmlns="http://www.w3.org/2000/svg" p-id="32342" xmlns:xlink="http://www.w3.org/1999/xlink" width="201.7578125" height="200"><defs><style type="text/css"></style></defs><path d="M666.568 184.4l2.687-163.716s0-8.4 16.8-12.18a40.068 40.068 0 0 1 27.972 7.056l285.6 210a50.4 50.4 0 0 1 26.124 41.16 43.26 43.26 0 0 1-19.74 37.128l-294 194.46a72.576 72.576 0 0 1-34.187 2.856c-16.8-3.864-16.8-16.296-16.8-16.296l3.024-153.132-282.576-4.536s-223.357 26.207-224.7 109.2c0 0 8.4-259.727 234.36-255.947M366.436 839.6l-2.772 163.884s-3.193 9.912-21.42 12.012a29.484 29.484 0 0 1-22.26-6.804l-285.6-210a50.82 50.82 0 0 1-26.376-41.58A43.344 43.344 0 0 1 27.83 719.9l294-194.628a39.48 39.48 0 0 1 28.56-2.52c20.245 5.628 20.916 15.96 20.916 15.96l-2.603 153.384 284.087 4.788s223.524-26.208 224.953-109.2c0 0-8.4 260.4-234.612 256.2" p-id="32343"></path></svg>