<?xml version="1.0" standalone="no"?><!DOCTYPE svg PUBLIC "-//W3C//DTD SVG 1.1//EN" "http://www.w3.org/Graphics/SVG/1.1/DTD/svg11.dtd"><svg t="1640227970415" class="icon" viewBox="0 0 1026 1024" version="1.1" xmlns="http://www.w3.org/2000/svg" p-id="2221" xmlns:xlink="http://www.w3.org/1999/xlink" width="200.390625" height="200"><defs><style type="text/css"></style></defs><path d="M959.443478 418.504348C792.486957-289.391304 140.243478 122.434783 140.243478 122.434783 765.773913-164.730435 854.817391 378.434783 861.495652 418.504348h-75.686956l120.208695 160.278261 120.208696-160.278261h-66.782609zM162.504348 605.495652h75.686956L120.208696 445.217391 0 605.495652h64.556522C231.513043 1313.391304 883.756522 901.565217 883.756522 901.565217 258.226087 1188.730435 169.182609 645.565217 162.504348 605.495652z" p-id="2222"></path><path d="M353.947826 447.443478c42.295652-6.678261 75.686957-42.295652 75.686957-86.817391 0-48.973913-40.069565-89.043478-89.043479-89.043478s-89.043478 40.069565-89.043478 89.043478c0 37.843478 24.486957 71.234783 57.878261 82.365217v140.243479c0 40.069565 20.034783 73.46087 51.2 93.495652 8.904348 28.93913 33.391304 48.973913 64.556522 48.973913s57.878261-22.26087 64.556521-51.2c28.93913-20.034783 46.747826-53.426087 46.747827-91.269565v-164.730435c0-17.808696 6.678261-33.391304 17.808695-46.747826 11.130435 20.034783 33.391304 35.617391 57.878261 35.617391 20.034783 0 37.843478-8.904348 51.2-22.26087 6.678261 11.130435 8.904348 22.26087 8.904348 33.391305v144.695652c-33.391304 13.356522-55.652174 44.521739-55.652174 82.365217 0 48.973913 40.069565 89.043478 89.043478 89.043479s89.043478-40.069565 89.043478-89.043479c0-44.521739-33.391304-82.365217-77.913043-89.043478v-140.243478c0-33.391304-15.582609-62.330435-37.843478-84.591304-2.226087-33.391304-31.165217-60.104348-66.782609-60.104348-28.93913 0-55.652174 20.034783-62.330435 46.747826-37.843478 22.26087-60.104348 60.104348-60.104348 102.4v164.730435c0 13.356522-4.452174 26.713043-11.130434 37.843478-11.130435-17.808696-31.165217-28.93913-55.652174-28.939131s-44.521739 13.356522-55.652174 31.165218c-8.904348-11.130435-13.356522-24.486957-13.356522-40.069565v-138.017392z m394.017391 200.347826c0 24.486957-20.034783 44.521739-44.521739 44.521739s-44.521739-20.034783-44.521739-44.521739 20.034783-44.521739 44.521739-44.521739 44.521739 20.034783 44.521739 44.521739zM296.069565 360.626087c0-24.486957 20.034783-44.521739 44.521739-44.521739s44.521739 20.034783 44.521739 44.521739-20.034783 44.521739-44.521739 44.521739-44.521739-20.034783-44.521739-44.521739z" p-id="2223"></path></svg>