<?xml version="1.0" standalone="no"?><!DOCTYPE svg PUBLIC "-//W3C//DTD SVG 1.1//EN" "http://www.w3.org/Graphics/SVG/1.1/DTD/svg11.dtd"><svg t="1640933304809" class="icon" viewBox="0 0 1024 1024" version="1.1" xmlns="http://www.w3.org/2000/svg" p-id="2507" xmlns:xlink="http://www.w3.org/1999/xlink" width="200" height="200"><defs><style type="text/css"></style></defs><path d="M904.8 1020H119.2c-8.8 0-16-7.2-16-16V20c0-8.8 7.2-16 16-16h559.2c4 0 8 1.6 11.2 4.8l225.6 225.6c3.2 3.2 4.8 7.2 4.8 11.2v758.4c0.8 8.8-6.4 16-15.2 16z m-769.6-32h753.6V252.8L672 36H135.2v952z" p-id="2508"></path><path d="M502.4 541.6c-3.2 0-6.4-2.4-8-5.6l-48-154.4-35.2 52.8c-1.6 2.4-4 3.2-6.4 3.2H234.4c-4.8 0-8-3.2-8-8s3.2-8 8-8h166.4l42.4-64c1.6-2.4 4.8-4 8-3.2 3.2 0.8 5.6 2.4 6.4 5.6l44.8 144 60-224c0.8-3.2 4-5.6 7.2-5.6 4 0 6.4 2.4 8 5.6l56 172 22.4-27.2c1.6-1.6 4-3.2 6.4-3.2h127.2c4.8 0 8 3.2 8 8s-3.2 8-8 8H665.6l-29.6 35.2c-1.6 2.4-4.8 3.2-8 2.4-3.2-0.8-4.8-2.4-6.4-5.6l-52.8-160-60 224.8c0.8 4.8-2.4 7.2-6.4 7.2zM789.6 706.4H234.4c-4.8 0-8-3.2-8-8s3.2-8 8-8h555.2c4.8 0 8 3.2 8 8s-3.2 8-8 8zM789.6 876H234.4c-4.8 0-8-3.2-8-8s3.2-8 8-8h555.2c4.8 0 8 3.2 8 8s-3.2 8-8 8zM904.8 253.6H679.2c-4.8 0-8-3.2-8-8V20c0-3.2 1.6-6.4 4.8-7.2 3.2-1.6 6.4-0.8 8.8 1.6L910.4 240c2.4 2.4 3.2 5.6 1.6 8.8-1.6 3.2-4 4.8-7.2 4.8z m-217.6-16h198.4L687.2 39.2v198.4z" p-id="2509"></path></svg>