<svg xmlns="http://www.w3.org/2000/svg" viewBox="0 0 1024 1024" width="16" height="16" style="border-color: rgba(0,0,0,0);border-width: apx;border-style: undefined" filter="none">
    
    <g>
    <path d="M515.636868 514.228996a40.791451 40.791451 0 0 0 40.66932-40.79145v-61.065046h61.065046a40.791451 40.791451 0 1 0 0-81.460772h-61.065046v-61.065046a40.791451 40.791451 0 1 0-81.460771 0v61.065046h-61.065046a40.791451 40.791451 0 1 0 0 81.460772h61.065046v61.065046a40.913581 40.913581 0 0 0 40.791451 40.79145z" fill="rgba(68.08500000000001,104.03999999999999,188.95499999999998,1)" stroke="none"></path><path d="M270.399643 72.606584h-48.852036A161.822372 161.822372 0 0 0 60.458015 234.184696v604.055434a186.00413 186.00413 0 0 0 185.75987 185.75987h531.63229a186.00413 186.00413 0 0 0 185.63774-185.75987V234.184696A161.700242 161.700242 0 0 0 801.909803 72.606584h-48.852036a40.791451 40.791451 0 1 0 0 81.460771h48.852036a80.11734 80.11734 0 0 1 80.117341 80.117341v604.055434a104.299099 104.299099 0 0 1-104.176969 104.176969H246.217885a104.421229 104.421229 0 0 1-104.299098-104.176969V234.184696a80.23947 80.23947 0 0 1 80.11734-80.117341h48.852037a40.791451 40.791451 0 0 0 0-81.460771z" fill="rgba(68.08500000000001,104.03999999999999,188.95499999999998,1)" stroke="none"></path><path d="M656.941384 81.522081a40.791451 40.791451 0 1 0 0-81.460772H367.004546a40.791451 40.791451 0 1 0 0 81.460772h104.176968v15.144131h-79.99521a40.791451 40.791451 0 0 0 0 81.582901h241.573322a40.791451 40.791451 0 1 0 0-81.582901h-79.99521V81.522081zM229.608193 620.726436a40.913581 40.913581 0 0 0 40.79145 40.791451h483.268774a40.791451 40.791451 0 0 0 0-81.582901H270.399643a40.913581 40.913581 0 0 0-40.79145 40.79145zM753.668417 749.085163H270.399643a40.791451 40.791451 0 1 0 0 81.582901h483.268774a40.791451 40.791451 0 0 0 0-81.582901z" fill="rgba(68.08500000000001,104.03999999999999,188.95499999999998,1)" stroke="none"></path>
    </g>
  </svg>