<svg xmlns="http://www.w3.org/2000/svg" viewBox="0 0 48 48" width="20" height="20" style="border-color: rgba(0,0,0,0);border-width: bpx;border-style: undefined" filter="none">
    
    <g>
    <rect width="48" height="48" fill="rgba(68.08500000000001,104.03999999999999,188.95499999999998,1)" fill-opacity="0.01" stroke="none"></rect><path d="M11 16V42" stroke="rgba(68.08500000000001,104.03999999999999,188.95499999999998,1)" stroke-width="4" stroke-linecap="round" stroke-linejoin="round" fill="none"></path><path d="M24 29V42" stroke="rgba(68.08500000000001,104.03999999999999,188.95499999999998,1)" stroke-width="4" stroke-linecap="round" stroke-linejoin="round" fill="none"></path><path d="M24 19V6" stroke="rgba(68.08500000000001,104.03999999999999,188.95499999999998,1)" stroke-width="4" stroke-linecap="round" stroke-linejoin="round" fill="none"></path><path d="M37 6V32" stroke="rgba(68.08500000000001,104.03999999999999,188.95499999999998,1)" stroke-width="4" stroke-linecap="round" stroke-linejoin="round" fill="none"></path><path d="M11 16C13.7614 16 16 13.7614 16 11C16 8.23858 13.7614 6 11 6C8.23858 6 6 8.23858 6 11C6 13.7614 8.23858 16 11 16Z" fill="none" stroke="rgba(68.08500000000001,104.03999999999999,188.95499999999998,1)" stroke-width="4" stroke-linejoin="round"></path><path d="M24 29C26.7614 29 29 26.7614 29 24C29 21.2386 26.7614 19 24 19C21.2386 19 19 21.2386 19 24C19 26.7614 21.2386 29 24 29Z" fill="none" stroke="rgba(68.08500000000001,104.03999999999999,188.95499999999998,1)" stroke-width="4" stroke-linejoin="round"></path><path d="M37 42C39.7614 42 42 39.7614 42 37C42 34.2386 39.7614 32 37 32C34.2386 32 32 34.2386 32 37C32 39.7614 34.2386 42 37 42Z" fill="none" stroke="rgba(68.08500000000001,104.03999999999999,188.95499999999998,1)" stroke-width="4" stroke-linejoin="round"></path>
    </g>
  </svg>